<svg width="23" height="19" viewBox="0 0 23 19" fill="none" xmlns="http://www.w3.org/2000/svg">
<path d="M13.8617 0.0569154C14.0515 0.110021 14.229 0.200014 14.384 0.321749C14.539 0.443484 14.6685 0.594575 14.7651 0.766386C14.8617 0.938196 14.9234 1.12736 14.9469 1.32306C14.9703 1.51876 14.955 1.71716 14.9017 1.90692L10.4707 17.6939C10.3633 18.077 10.1081 18.4018 9.76122 18.5967C9.41437 18.7917 9.00429 18.8408 8.62118 18.7334C8.23808 18.626 7.91333 18.3708 7.71839 18.024C7.52344 17.6771 7.47427 17.267 7.58168 16.8839L12.0127 1.09492C12.0659 0.905197 12.156 0.727821 12.2777 0.572921C12.3995 0.418021 12.5506 0.288632 12.7224 0.192146C12.8942 0.09566 13.0834 0.0339673 13.279 0.0105924C13.4746 -0.0127825 13.673 0.00261851 13.8627 0.0559155L13.8617 0.0569154ZM6.80168 4.09192C7.08258 4.37317 7.24036 4.75441 7.24036 5.15192C7.24036 5.54942 7.08258 5.93067 6.80168 6.21192L3.62168 9.39492L6.80368 12.5769C7.08494 12.8583 7.2429 13.2399 7.24281 13.6378C7.24271 14.0356 7.08457 14.4172 6.80318 14.6984C6.52179 14.9797 6.14019 15.1376 5.74233 15.1375C5.34447 15.1374 4.96294 14.9793 4.68168 14.6979L0.43868 10.4549C0.157779 10.1737 0 9.79242 0 9.39492C0 8.99741 0.157779 8.61617 0.43868 8.33492L4.68068 4.09192C4.81998 3.95253 4.98538 3.84195 5.16743 3.76651C5.34948 3.69107 5.54462 3.65224 5.74168 3.65224C5.93874 3.65224 6.13388 3.69107 6.31593 3.76651C6.49798 3.84195 6.66238 3.95253 6.80168 4.09192ZM15.6817 6.21192C15.5343 6.07459 15.4161 5.90899 15.3341 5.72499C15.2521 5.54099 15.2081 5.34237 15.2045 5.14096C15.2009 4.93956 15.238 4.7395 15.3134 4.55272C15.3889 4.36594 15.5012 4.19628 15.6436 4.05384C15.786 3.9114 15.9557 3.79911 16.1425 3.72367C16.3293 3.64823 16.5293 3.61118 16.7307 3.61473C16.9321 3.61829 17.1308 3.66237 17.3148 3.74435C17.4988 3.82634 17.6644 3.94454 17.8017 4.09192L22.0447 8.33392C22.3259 8.61521 22.4839 8.99667 22.4839 9.39442C22.4839 9.79216 22.3259 10.1736 22.0447 10.4549L17.8027 14.6979C17.6634 14.8372 17.4981 14.9478 17.3161 15.0232C17.1341 15.0986 16.939 15.1375 16.742 15.1375C16.545 15.1376 16.35 15.0988 16.1679 15.0235C15.9859 14.9481 15.8205 14.8377 15.6812 14.6984C15.5418 14.5591 15.4313 14.3938 15.3559 14.2118C15.2804 14.0298 15.2416 13.8348 15.2416 13.6378C15.2415 13.4408 15.2803 13.2457 15.3556 13.0637C15.431 12.8816 15.5414 12.7162 15.6807 12.5769L18.8627 9.39492L15.6817 6.21192Z" fill="black"/>
</svg>
