<svg xmlns="http://www.w3.org/2000/svg" aria-labelledby="MuseColorLogo"
     aria-describedby="MuseColorLogoDesc" viewBox="0 0 103 33" width="5em" height="5em"
     className="header_logo__iydRN"><title id="MuseColorLogo">The Muse Logo</title>
    <desc id="MuseColorLogoDesc">A logo with &amp;quat;the muse&amp;quat; in dark blue text.</desc>
    <path
            d="M48.0115 15.3357V7.68611H46.248V7.2835C48.2884 6.55237 49.991 5.10037 51.0351 3.20105H51.5383V6.78024H54.8155V7.68611H51.5383V15.0458C51.5383 16.306 52.0456 17.2641 53.1004 17.2641C53.6868 17.2517 54.2465 17.0171 54.6666 16.6079L54.9685 16.7085C54.3123 18.0694 53.2011 19.2772 51.2887 19.2772C49.2193 19.1524 48.0115 17.7513 48.0115 15.3357Z"
            fill="#1D2D5A"></path>
    <path
            d="M56.3294 16.4307V4.08277C56.3294 2.41999 55.4195 2.267 54.562 2.267L54.5137 1.91673L59.8039 1.01086V8.92212C60.1575 8.22335 60.6981 7.63651 61.3657 7.22704C62.0332 6.81756 62.8013 6.60155 63.5844 6.6031C65.5532 6.6031 67.4173 7.91561 67.4173 10.5366V16.4831C67.4173 18.1459 68.3231 18.4478 69.08 18.6008V18.9511H62.4773V18.6008C63.1335 18.4478 63.8864 18.1459 63.8864 16.4831V10.9875C63.8864 9.42539 62.9805 8.82147 61.974 8.76913C61.1689 8.77371 60.3947 9.07966 59.8039 9.62669V16.4307C59.8039 18.0935 60.6092 18.3955 61.3661 18.5485V18.9028H54.6063V18.5565C55.4115 18.3955 56.3294 18.0935 56.3294 16.4307Z"
            fill="#1D2D5A"></path>
    <path
            d="M68.9795 12.8516C68.9795 8.92218 71.2985 6.60315 74.7247 6.60315C78.5052 6.60315 80.1156 9.52609 80.0673 12.5497H72.607C72.76 15.8269 74.3704 17.24 76.2305 17.24C76.9032 17.2126 77.5622 17.0406 78.1624 16.7356C78.7627 16.4306 79.2902 15.9998 79.709 15.4726L80.011 15.5249C79.6181 16.5857 78.9105 17.5011 77.9831 18.1486C77.0556 18.7962 75.9525 19.145 74.8213 19.1484C72.0031 19.1524 68.9795 17.0871 68.9795 12.8516ZM76.629 11.7968C76.629 9.9287 76.1218 7.36811 74.7126 7.36811C73.3035 7.36811 72.6996 10.0897 72.6473 11.7968H76.629Z"
            fill="#1D2D5A"></path>
    <path
            d="M62.5256 30.192V24.6964C62.5256 23.1866 61.5714 22.5827 60.5126 22.5827C59.7931 22.5904 59.1052 22.8794 58.5962 23.3879C58.6378 23.6717 58.654 23.9587 58.6445 24.2455V30.192C58.6445 31.8548 59.3531 32.1567 60.0576 32.3097V32.66H53.8575V32.3097C54.562 32.1567 55.2706 31.8548 55.2706 30.192V24.7487C55.2706 23.2349 54.3607 22.631 53.2576 22.631C52.5615 22.6434 51.8946 22.913 51.3854 23.3879V30.192C51.3854 31.8548 52.09 32.1567 52.7946 32.3097V32.66H46.2441V32.3097C47.1017 32.1567 47.9552 31.8548 47.9552 30.192V22.9853C47.9552 21.3225 47.1017 21.0165 46.2441 20.9159V20.5696H51.3854V22.8363C52.243 21.4755 53.4508 20.469 55.1659 20.469C55.9401 20.4344 56.7018 20.6726 57.3183 21.142C57.9348 21.6114 58.3671 22.2822 58.5398 23.0376C59.3974 21.5762 60.6092 20.469 62.4209 20.469C64.3897 20.469 66.0001 21.7775 66.0001 24.3985V30.345C66.0001 32.0118 66.91 32.3137 67.6629 32.4627V32.817H61.2212V32.4627C61.821 32.1567 62.5256 31.8427 62.5256 30.192Z"
            fill="#1D2D5A"></path>
    <path
            d="M67.7195 28.8794V22.9329C67.7195 21.2701 66.8096 20.9681 66.0044 20.8675V20.5132H71.198V28.4285C71.198 29.9906 72.1039 30.5945 73.1104 30.6468C73.9368 30.6277 74.7269 30.3036 75.3288 29.7369V22.9852C75.3288 21.3224 74.5719 21.0164 73.9197 20.9158V20.5696H78.8556V30.2966C78.8556 31.9593 79.7655 32.2613 80.5224 32.4143V32.7645H76.3474C75.8974 32.1445 75.572 31.4431 75.3892 30.6992C74.9732 31.3583 74.4017 31.9052 73.7251 32.292C73.0484 32.6788 72.2871 32.8936 71.508 32.9175C69.5353 32.8129 67.7195 31.5004 67.7195 28.8794Z"
            fill="#1D2D5A"></path>
    <path
            d="M80.9732 31.907V28.3762H81.3758C82.789 31.2508 84.1498 32.1083 85.563 32.1083C86.7708 32.1083 87.3747 31.4521 87.3747 30.5462C87.3747 29.0807 85.7119 28.6781 83.8962 27.8729C81.7301 26.9147 80.6753 25.8075 80.6753 24.1448C80.6753 21.9264 82.4387 20.3643 85.414 20.3643C86.7958 20.4129 88.1584 20.7031 89.4401 21.2218V24.495H89.0375C87.9303 21.7251 86.6218 21.1695 85.4583 21.1695C84.2021 21.1695 83.4452 21.8257 83.4452 22.6833C83.4452 23.9434 85.2087 24.2937 87.427 25.4049C88.7355 25.9565 90.197 26.8141 90.197 28.9318C90.197 31.4521 88.2846 32.8612 85.563 32.8612C83.9849 32.851 82.4246 32.5266 80.9732 31.907Z"
            fill="#1D2D5A"></path>
    <path
            d="M91.2437 26.6087C91.2437 22.6793 93.5627 20.3602 96.9889 20.3602C100.721 20.3602 102.384 23.2832 102.331 26.3068H94.8671C95.0201 29.584 96.6346 30.9931 98.4906 30.9931C99.1631 30.9664 99.8219 30.7951 100.422 30.4908C101.022 30.1865 101.55 29.7564 101.969 29.2297L102.271 29.282C101.877 30.3428 101.169 31.258 100.241 31.9054C99.3125 32.5529 98.209 32.9018 97.0774 32.9055C94.231 32.9136 91.2437 30.8482 91.2437 26.6087ZM98.8529 25.5499C98.8529 23.6858 98.3497 21.1212 96.9406 21.1212C95.5314 21.1212 94.9275 23.8468 94.8712 25.5499H98.8529Z"
            fill="#1D2D5A"></path>
    <path
            d="M21.3126 21.8795V21.5459C21.3164 16.3199 19.3644 11.2816 15.8407 7.4221C12.317 3.56264 7.47667 1.16144 2.27184 0.69081C1.81122 0.645113 1.35124 0.783661 0.992486 1.07616C0.633737 1.36866 0.405416 1.79131 0.357422 2.25169V21.8961V30.8646C0.363487 31.3303 0.551411 31.7752 0.881075 32.1042C1.21074 32.4333 1.656 32.6204 2.12175 32.6256H21.3126V21.8795Z"
            fill="white"></path>
    <path
            d="M21.3125 21.8795V21.546C21.3088 16.3199 23.2607 11.2816 26.7844 7.42217C30.3081 3.56272 35.1485 1.16151 40.3533 0.690883C40.5893 0.670889 40.8269 0.698502 41.0519 0.772106C41.277 0.845709 41.485 0.963801 41.6636 1.11935C41.8422 1.2749 41.9876 1.46472 42.0914 1.67759C42.1952 1.89045 42.2552 2.12201 42.2677 2.35849V21.9529V30.9213C42.2625 31.3868 42.0753 31.8317 41.7462 32.1608C41.417 32.4899 40.9722 32.6771 40.5067 32.6823H21.3125V21.8795Z"
            fill="#1D2D5A"></path>
</svg>